<?xml version="1.0" standalone="no"?>
<!DOCTYPE svg PUBLIC "-//W3C//DTD SVG 20010904//EN"
 "http://www.w3.org/TR/2001/REC-SVG-20010904/DTD/svg10.dtd">
<svg version="1.0" xmlns="http://www.w3.org/2000/svg"
 width="512.000000pt" height="512.000000pt" viewBox="0 0 512.000000 512.000000"
 preserveAspectRatio="xMidYMid meet">

<g transform="translate(0.000000,512.000000) scale(0.100000,-0.100000)"
stroke="none">
<path d="M843 4960 c-111 -39 -221 -91 -399 -190 -151 -84 -214 -125 -214
-139 0 -4 26 -14 58 -21 165 -37 399 -141 572 -255 169 -112 507 -375 509
-396 1 -4 -20 -10 -46 -14 -207 -30 -601 -127 -733 -179 -19 -8 -69 -27 -110
-42 -92 -33 -290 -124 -290 -134 0 -3 44 -15 98 -25 105 -19 389 -112 542
-177 240 -102 545 -268 513 -279 -10 -4 -72 -17 -137 -29 -199 -38 -446 -103
-435 -115 3 -2 49 -11 104 -21 112 -19 353 -87 460 -129 79 -31 250 -116 279
-138 17 -12 11 -14 -59 -20 -43 -4 -101 -7 -129 -7 -68 0 -49 -12 64 -40 130
-33 302 -94 312 -111 4 -8 12 -32 18 -55 14 -58 46 -101 122 -164 l67 -55 1
-55 c0 -75 -18 -180 -36 -208 -15 -22 -22 -23 -85 -6 -8 2 -42 -12 -74 -32
-50 -30 -63 -34 -83 -25 -39 18 -58 13 -118 -33 -50 -38 -62 -42 -83 -34 -34
12 -59 5 -121 -37 l-52 -35 -117 0 c-152 0 -356 -25 -438 -53 -64 -21 -67 -23
-79 -67 -8 -25 -21 -94 -30 -154 -17 -110 -17 -110 -69 -165 -85 -93 -160
-218 -194 -322 -9 -27 -25 -45 -61 -67 -54 -34 -76 -67 -67 -104 4 -13 35 -67
71 -121 36 -54 68 -114 72 -135 3 -20 20 -65 36 -100 24 -50 28 -72 24 -105
-5 -38 -5 -40 6 -17 7 14 13 27 15 29 1 2 12 -8 24 -22 11 -15 25 -27 30 -27
6 0 -4 17 -20 37 -29 37 -82 145 -94 191 -5 22 7 30 18 12 4 -6 23 -19 43 -29
31 -16 41 -29 57 -77 11 -33 20 -64 20 -69 0 -6 10 -24 23 -39 12 -16 22 -24
22 -18 0 6 -4 13 -9 17 -12 7 -55 144 -48 152 3 3 30 -4 59 -15 29 -11 89 -30
133 -42 44 -12 84 -26 89 -30 4 -5 -5 -15 -20 -23 -31 -16 -83 -67 -69 -67 4
0 23 11 41 25 41 31 44 31 44 -2 0 -73 29 58 45 203 4 33 10 66 15 73 4 8 6
-7 3 -33 l-6 -46 157 0 156 0 0 65 c0 37 4 65 10 65 6 0 10 -15 10 -34 0 -52
31 -276 41 -300 7 -15 8 -7 6 32 -3 63 8 68 23 10 17 -65 18 -67 19 -21 1 41
1 42 31 33 17 -5 30 -6 30 -2 0 4 -12 49 -26 101 -14 51 -23 96 -20 99 3 3 6
-2 6 -11 0 -29 36 -37 155 -37 l117 0 -4 30 c-5 36 1 30 35 -31 14 -26 51 -85
82 -133 50 -76 61 -87 79 -80 12 3 77 8 146 10 69 2 138 8 154 13 15 6 61 11
101 11 58 0 73 -3 69 -13 -4 -11 7 -13 52 -9 41 3 58 1 65 -9 6 -10 33 10 105
81 54 52 109 106 122 120 13 14 25 21 28 15 4 -9 140 -10 352 -2 67 2 75 5 97
32 l25 30 -17 -37 c-12 -24 -31 -42 -55 -53 -48 -21 -111 -74 -154 -128 -40
-50 -42 -61 -9 -53 14 4 33 1 43 -5 16 -10 25 -6 59 28 41 41 124 88 144 81 6
-2 -9 -28 -35 -58 -56 -66 -50 -83 7 -18 23 25 52 51 64 57 27 14 90 14 98 1
8 -12 -90 -60 -123 -60 -40 0 -18 -25 27 -31 31 -4 44 -2 48 8 3 8 14 11 29 7
17 -4 30 1 49 20 34 34 47 33 84 -9 32 -36 44 -44 36 -22 -8 18 57 16 72 -3
11 -13 12 -13 13 0 1 63 -161 190 -242 190 -16 0 -28 2 -28 5 0 13 35 75 42
75 5 0 2 -11 -7 -23 l-15 -24 91 -6 c51 -4 129 -7 173 -7 l81 0 2 -70 c1 -39
7 -78 12 -88 6 -9 11 -12 11 -4 0 20 44 14 58 -8 15 -24 44 -28 35 -4 -3 8 9
1 28 -15 31 -29 67 -45 41 -19 -22 22 -12 28 49 28 37 0 58 4 54 10 -3 5 -3
10 0 10 3 0 11 -13 16 -30 18 -51 27 -33 12 23 -17 61 -13 172 6 189 11 11 13
10 8 -3 -3 -9 0 -38 5 -65 9 -39 12 -45 18 -29 5 13 10 -8 15 -63 4 -45 10
-82 14 -82 3 0 7 39 8 88 1 48 12 187 24 309 l23 222 42 -39 c48 -44 54 -45
309 -59 243 -13 249 -18 315 -251 35 -122 44 -142 64 -134 6 2 32 6 56 8 25 2
48 4 53 5 17 2 32 62 37 156 l5 100 22 -45 c18 -36 22 -40 23 -21 0 13 -25 81
-55 151 -49 113 -55 132 -49 171 4 24 17 55 29 69 51 57 59 109 21 149 -13 15
-38 61 -56 103 -30 72 -80 157 -131 220 -22 27 -22 28 -4 81 l18 53 -28 63
c-16 34 -37 67 -47 72 -16 8 -18 18 -14 52 3 23 8 69 11 102 8 89 17 167 22
190 17 84 34 236 34 309 0 32 -48 90 -105 126 -39 25 -56 43 -60 64 -10 48 -6
166 8 261 19 125 16 217 -8 244 -24 26 -77 37 -106 21 -35 -19 -78 -71 -112
-135 -32 -61 -34 -75 -38 -276 0 -25 -1 -26 -54 -21 -71 6 -130 -22 -208 -98
l-58 -56 0 -92 c0 -69 -4 -99 -17 -118 -25 -38 -30 -162 -8 -203 15 -30 15
-36 1 -72 -23 -57 -21 -156 4 -197 19 -30 19 -35 5 -62 -8 -16 -15 -38 -15
-50 0 -23 -23 -26 -83 -9 -26 7 -47 23 -68 52 -36 49 -53 57 -97 45 -30 -8
-37 -6 -85 36 -48 43 -55 46 -108 46 -39 0 -61 5 -69 15 -9 11 -29 15 -66 14
-49 -2 -55 1 -102 42 -46 40 -51 49 -57 99 -3 30 -15 123 -26 205 -12 83 -23
171 -26 196 l-5 46 133 66 c115 57 415 167 456 167 7 0 13 4 13 9 0 10 -56 20
-120 22 -107 3 -101 12 36 63 124 46 458 147 537 161 43 8 50 25 9 25 -15 0
-55 7 -87 16 -94 25 -236 54 -262 54 -43 0 -23 18 55 50 42 18 169 72 282 122
300 131 315 137 372 158 29 10 85 31 123 45 39 15 108 39 155 54 l85 28 -43
22 c-211 108 -748 225 -1057 230 -55 1 -101 3 -102 5 -4 4 255 174 346 227
l75 44 -41 3 c-88 7 -479 -56 -627 -100 -59 -18 -71 -19 -78 -7 -5 8 -30 51
-56 97 -88 154 -206 263 -349 322 -43 18 -79 33 -80 34 -1 1 15 47 36 102 43
109 104 343 99 377 -2 12 -12 -14 -22 -58 -47 -203 -121 -410 -147 -410 -11 0
-13 19 -11 105 5 149 -25 380 -50 380 -5 0 -6 -5 -2 -12 5 -8 2 -9 -12 -3 -27
12 -260 18 -314 8 -43 -8 -45 -10 -51 -48 -3 -22 -7 -34 -8 -26 -1 10 -16 12
-66 9 l-65 -4 0 32 c0 18 -4 36 -10 39 -7 4 -10 -52 -10 -159 0 -91 -4 -166
-8 -166 -5 0 -39 26 -78 58 -131 110 -383 277 -405 270 -8 -3 160 -127 229
-169 27 -17 29 -29 2 -22 -11 3 -20 9 -20 12 0 11 -86 71 -102 71 -7 0 -19 9
-26 20 -12 19 -23 20 -221 20 -115 0 -211 -4 -213 -8 -1 -4 -64 -5 -138 -2
-74 4 -136 3 -138 -2 -5 -12 -42 -10 -42 2 0 6 -9 10 -20 10 -11 0 -20 -4 -20
-9 0 -5 -11 -11 -24 -13 -17 -4 -23 -1 -19 9 4 10 -19 13 -118 13 -109 0 -183
-11 -199 -31 -3 -3 -17 -9 -32 -12 -15 -4 -33 -14 -42 -22 -8 -8 -23 -15 -32
-15 -32 0 -2 16 151 84 159 69 174 84 38 36z m757 -92 c0 -11 -2 -10 -44 7
-47 20 -46 25 4 12 22 -6 40 -15 40 -19z m-575 12 c-16 -4 -39 -8 -50 -8 -16
0 -15 2 5 8 14 4 36 8 50 8 22 0 22 -1 -5 -8z m1462 -62 c-2 -13 -4 -3 -4 22
0 25 2 35 4 23 2 -13 2 -33 0 -45z m-1640 26 c-3 -3 -12 -4 -19 -1 -8 3 -5 6
6 6 11 1 17 -2 13 -5z m837 -19 c5 -13 2 -14 -17 -4 -32 17 -33 19 -10 19 12
0 23 -7 27 -15z m-1080 -10 c-4 -8 -12 -15 -20 -15 -20 0 -64 -22 -64 -32 0
-5 10 -6 23 -2 52 16 4 -8 -63 -32 -41 -14 -86 -32 -101 -40 -52 -27 -44 -14
13 20 48 29 209 116 215 116 1 0 0 -7 -3 -15z m106 -5 c-8 -5 -22 -9 -30 -9
-10 0 -8 3 5 9 27 12 43 12 25 0z m1535 -135 c36 -31 38 -35 18 -35 -14 0 -23
6 -23 15 0 8 -18 28 -40 43 -21 15 -41 33 -44 40 -6 15 28 -10 89 -63z m115 5
c0 -22 -4 -40 -10 -40 -5 0 -10 18 -10 40 0 22 5 40 10 40 6 0 10 -18 10 -40z
m-360 -92 c0 -12 -6 -9 -26 13 -19 22 -19 22 4 8 12 -8 22 -17 22 -21z m368
-8 c7 -11 11 -20 9 -20 -2 0 -12 9 -22 20 -10 11 -14 20 -9 20 5 0 15 -9 22
-20z m-303 -50 c10 -11 16 -20 13 -20 -3 0 -13 9 -23 20 -10 11 -16 20 -13 20
3 0 13 -9 23 -20z m222 -42 c-3 -7 -5 -2 -5 12 0 14 2 19 5 13 2 -7 2 -19 0
-25z m-10 -50 c-3 -7 -5 -2 -5 12 0 14 2 19 5 13 2 -7 2 -19 0 -25z m210 -35
c-3 -10 -5 -4 -5 12 0 17 2 24 5 18 2 -7 2 -21 0 -30z m-279 -23 c7 -11 11
-20 9 -20 -2 0 -12 9 -22 20 -10 11 -14 20 -9 20 5 0 15 -9 22 -20z m52 -34
c0 -8 -4 -18 -10 -21 -5 -3 -10 3 -10 14 0 12 5 21 10 21 6 0 10 -6 10 -14z
m1767 -232 c-3 -3 -12 -4 -19 -1 -8 3 -5 6 6 6 11 1 17 -2 13 -5z m-107 -22
c0 -11 -75 -32 -78 -21 -2 5 -13 10 -25 10 -17 1 -15 3 8 9 41 10 95 12 95 2z
m-157 -19 c-7 -2 -21 -2 -30 0 -10 3 -4 5 12 5 17 0 24 -2 18 -5z m-56 -9 c-3
-3 -12 -4 -19 -1 -8 3 -5 6 6 6 11 1 17 -2 13 -5z m-67 -14 c0 -5 -12 -10 -27
-9 -25 0 -26 1 -8 9 27 12 35 12 35 0z m-824 -18 c13 -7 13 -10 0 -21 -13 -11
-16 -11 -16 2 0 11 -14 18 -47 22 -76 10 -83 15 -15 10 35 -3 70 -9 78 -13z
m761 2 c-3 -3 -12 -4 -19 -1 -8 3 -5 6 6 6 11 1 17 -2 13 -5z m-1333 -19 c-4
-10 -20 -15 -45 -15 -48 0 -50 6 -6 19 47 14 57 13 51 -4z m1236 -30 c0 -28 6
-30 46 -15 15 6 29 9 31 6 2 -2 -16 -11 -41 -19 -43 -15 -44 -15 -50 6 -8 32
-7 47 4 47 6 0 10 -11 10 -25z m-1342 8 c-10 -2 -18 -10 -18 -18 0 -7 -9 -15
-20 -18 -11 -3 -20 -12 -20 -21 0 -9 -4 -16 -10 -16 -13 0 9 51 29 68 8 6 24
11 35 11 17 -1 18 -2 4 -6z m469 -25 c-3 -7 -5 -2 -5 12 0 14 2 19 5 13 2 -7
2 -19 0 -25z m-43 -32 c-3 -9 -10 -16 -15 -16 -5 0 -4 9 3 20 14 22 21 20 12
-4z m-373 -9 c-10 -9 -11 -8 -5 6 3 10 9 15 12 12 3 -3 0 -11 -7 -18z m333 8
c-4 -8 -11 -15 -16 -15 -6 0 -5 6 2 15 7 8 14 15 16 15 2 0 1 -7 -2 -15z
m-1070 -43 l30 -37 -39 35 c-22 19 -42 36 -44 38 -2 1 2 2 10 1 8 0 27 -17 43
-37z m1143 1 c-3 -10 -5 -4 -5 12 0 17 2 24 5 18 2 -7 2 -21 0 -30z m-1239 20
c-10 -2 -26 -2 -35 0 -10 3 -2 5 17 5 19 0 27 -2 18 -5z m-75 -10 c-7 -2 -21
-2 -30 0 -10 3 -4 5 12 5 17 0 24 -2 18 -5z m1269 -75 c-6 -35 -16 -139 -23
-233 -12 -167 -12 -171 -45 -222 -35 -55 -31 -73 5 -26 12 14 23 24 25 22 2
-2 5 -29 7 -59 5 -95 15 -112 37 -62 33 74 83 148 140 206 l62 65 53 -15 c86
-25 86 -25 112 39 l24 57 -29 22 -30 22 68 48 c37 27 74 55 84 63 14 12 17 9
22 -23 4 -21 14 -64 22 -98 l16 -60 -86 -167 c-47 -92 -86 -169 -86 -171 0 -2
36 9 80 25 44 15 80 25 80 22 0 -4 -18 -28 -40 -54 -22 -26 -40 -50 -40 -52 0
-3 10 -7 22 -10 21 -6 21 -9 15 -119 -10 -163 -16 -179 -79 -209 l-51 -24 36
-14 c42 -15 43 -22 27 -117 -35 -195 -36 -198 -130 -312 -157 -192 -247 -272
-369 -326 -80 -36 -172 0 -403 158 -59 41 -126 90 -149 110 -78 66 -74 54
-178 564 -26 127 -44 232 -41 232 3 0 12 -6 18 -12 10 -10 11 7 6 83 -7 100 2
249 15 249 5 0 16 -19 25 -42 15 -38 18 -41 27 -25 6 10 9 28 6 38 -4 16 -3
18 9 9 11 -10 18 -5 35 24 24 41 46 56 82 56 24 0 25 -3 32 -91 4 -50 10 -103
14 -117 7 -24 9 -21 46 41 43 73 50 74 81 9 9 -20 19 -32 21 -25 2 6 -2 24
-10 40 -8 15 -18 42 -21 59 -7 30 0 39 97 145 58 63 139 148 181 189 l77 75
-37 -80 c-55 -122 -113 -279 -134 -369 -23 -92 -23 -99 -11 -92 4 3 11 23 15
45 21 135 188 519 242 558 16 12 31 20 33 18 2 -2 -2 -32 -7 -67z m-1407 53
c-11 -5 -40 -11 -65 -14 l-45 -6 50 14 c56 15 91 18 60 6z m902 -23 c-3 -8 -6
-5 -6 6 -1 11 2 17 5 13 3 -3 4 -12 1 -19z m674 -1 c-10 -9 -11 -8 -5 6 3 10
9 15 12 12 3 -3 0 -11 -7 -18z m-1721 -7 c0 -5 -10 -10 -22 -10 -13 0 -34 -2
-48 -5 -14 -3 -7 2 15 9 50 18 55 18 55 6z m2965 -13 c22 -2 -27 -4 -110 -5
-82 -1 -155 2 -162 6 -10 6 178 6 272 -1z m-1275 -37 c-11 -22 -23 -40 -26
-40 -2 0 0 9 6 19 5 11 10 29 10 40 0 12 7 21 15 21 13 0 12 -6 -5 -40z m953
20 c-3 -12 -14 -20 -26 -20 -19 0 -20 1 -2 20 10 11 21 20 26 20 4 0 5 -9 2
-20z m-1651 -53 c-6 -23 -14 -68 -17 -100 -4 -32 -10 -56 -14 -55 -56 30 -64
31 -90 21 -24 -9 -20 -1 37 76 35 47 69 95 75 106 16 30 21 2 9 -48z m1128
-94 c0 -17 5 -33 11 -35 14 -5 -7 -118 -21 -118 -5 0 -4 12 2 26 9 19 9 39 -1
87 -29 132 -38 187 -32 192 8 8 41 -114 41 -152z m953 150 c-7 -2 -19 -2 -25
0 -7 3 -2 5 12 5 14 0 19 -2 13 -5z m-3233 -13 c0 -5 -8 -10 -17 -10 -10 0
-29 -3 -43 -5 -16 -3 -12 0 10 9 43 18 50 19 50 6z m3430 -11 c11 -7 4 -8 -25
-3 -50 8 -58 14 -19 14 16 0 36 -5 44 -11z m-2230 -19 c0 -11 -6 -20 -14 -20
-9 0 -12 7 -9 20 3 11 9 20 14 20 5 0 9 -9 9 -20z m83 5 c-3 -9 -8 -14 -10
-11 -3 3 -2 9 2 15 9 16 15 13 8 -4z m451 -49 c-4 -31 -9 -54 -12 -52 -2 3 -1
30 3 61 3 31 9 55 11 52 3 -2 2 -30 -2 -61z m-1854 34 c0 -5 -11 -10 -24 -10
-13 0 -33 -2 -43 -5 -10 -3 -4 1 12 9 36 18 55 20 55 6z m3730 -6 c22 -9 26
-12 10 -9 -14 2 -42 5 -62 5 -21 0 -38 5 -38 10 0 14 49 11 90 -6z m-915 -19
c-16 -13 -34 -24 -40 -25 -5 0 4 11 20 25 17 13 35 24 40 25 6 0 -3 -11 -20
-25z m-2052 8 c-24 -2 -62 -2 -85 0 -24 2 -5 4 42 4 47 0 66 -2 43 -4z m92 -3
c3 -5 1 -10 -4 -10 -6 0 -11 5 -11 10 0 6 2 10 4 10 3 0 8 -4 11 -10z m1415
-5 c-7 -8 -18 -15 -24 -15 -6 0 -2 7 8 15 25 19 32 19 16 0z m1527 -1 c-3 -3
-12 -4 -19 -1 -8 3 -5 6 6 6 11 1 17 -2 13 -5z m-3414 -11 c-13 -2 -33 -2 -45
0 -13 2 -3 4 22 4 25 0 35 -2 23 -4z m3507 -8 c37 -13 39 -14 11 -10 -18 3
-40 5 -47 5 -8 0 -14 5 -14 10 0 12 -4 13 50 -5z m-4055 -5 c-3 -5 -14 -10
-23 -9 -14 0 -13 2 3 9 27 11 27 11 20 0z m448 3 c-7 -2 -21 -2 -30 0 -10 3
-4 5 12 5 17 0 24 -2 18 -5z m2840 0 c-24 -2 -62 -2 -85 0 -24 2 -5 4 42 4 47
0 66 -2 43 -4z m-2930 -10 c-7 -2 -19 -2 -25 0 -7 3 -2 5 12 5 14 0 19 -2 13
-5z m1102 -13 c-3 -10 -10 -48 -15 -82 l-9 -63 5 74 c2 40 7 77 10 82 10 16
15 9 9 -11z m67 -12 c-8 -8 -9 -4 -5 13 4 13 8 18 11 10 2 -7 -1 -18 -6 -23z
m2011 25 c-18 -2 -48 -2 -65 0 -18 2 -4 4 32 4 36 0 50 -2 33 -4z m-3613 -23
c0 -5 -9 -10 -21 -10 -11 0 -17 5 -14 10 3 6 13 10 21 10 8 0 14 -4 14 -10z
m273 3 c-7 -2 -19 -2 -25 0 -7 3 -2 5 12 5 14 0 19 -2 13 -5z m3670 0 c-13 -2
-33 -2 -45 0 -13 2 -3 4 22 4 25 0 35 -2 23 -4z m-3726 -9 c-3 -3 -12 -4 -19
-1 -8 3 -5 6 6 6 11 1 17 -2 13 -5z m3831 -1 c-10 -2 -26 -2 -35 0 -10 3 -2 5
17 5 19 0 27 -2 18 -5z m275 -18 c20 -8 37 -17 37 -19 0 -1 -21 1 -47 5 -27 4
-54 8 -60 8 -7 1 -13 8 -13 17 0 18 20 15 83 -11z m-4385 4 c-31 -17 -20 -30
20 -25 34 5 35 5 7 -4 -16 -5 -40 -7 -53 -3 -13 3 -27 1 -31 -5 -3 -5 -32 -16
-64 -24 -71 -18 -67 -14 31 33 71 34 134 54 90 28z m215 4 c-7 -2 -19 -2 -25
0 -7 3 -2 5 12 5 14 0 19 -2 13 -5z m1637 3 c0 -2 -8 -10 -17 -17 -16 -13 -17
-12 -4 4 13 16 21 21 21 13z m2363 -3 c-7 -2 -19 -2 -25 0 -7 3 -2 5 12 5 14
0 19 -2 13 -5z m-2073 -58 c0 -30 -3 -55 -7 -55 -5 0 -6 25 -5 55 5 71 12 71
12 0z m-2047 38 c-7 -2 -19 -2 -25 0 -7 3 -2 5 12 5 14 0 19 -2 13 -5z m1087
-135 l-5 -123 -5 105 c-6 128 -22 120 -31 -15 l-5 -90 -2 88 c-2 81 0 91 24
123 15 19 27 34 28 34 0 0 -1 -55 -4 -122z m1547 50 c-3 -8 -6 -5 -6 6 -1 11
2 17 5 13 3 -3 4 -12 1 -19z m-588 -75 c-1 -16 -5 -41 -9 -58 -6 -25 -8 -20
-9 28 0 32 3 57 9 57 6 0 9 -12 9 -27z m-559 -33 c0 -11 -4 -20 -10 -20 -5 0
-10 9 -10 20 0 11 5 20 10 20 6 0 10 -9 10 -20z m1091 -20 c6 0 7 -5 4 -10
-11 -17 -36 16 -28 37 7 16 8 16 11 -4 2 -13 8 -23 13 -23z m-71 -124 c-18
-30 -50 -55 -50 -40 0 3 15 32 33 64 28 52 32 56 35 34 2 -13 -6 -40 -18 -58z
m-1409 -18 l20 -23 -6 25 c-5 19 -4 22 4 10 6 -8 11 -27 11 -42 0 -16 4 -28 8
-28 5 0 14 -12 21 -27 l12 -28 -21 25 c-61 74 -104 151 -49 88z m1531 -5 c-11
-16 -33 -39 -48 -53 -16 -14 -9 -2 16 28 46 56 64 70 32 25z m293 -3 c48 -53
16 -354 -52 -485 -43 -85 -79 -127 -144 -171 -63 -42 -139 -66 -139 -44 0 6 6
10 13 9 22 -4 105 40 137 72 62 63 130 240 130 341 0 26 5 50 10 53 11 7 12
116 1 155 -4 15 -15 26 -28 28 -32 5 -109 -70 -144 -139 -23 -47 -32 -56 -49
-52 -11 3 -23 9 -25 13 -10 17 112 166 166 202 61 42 98 47 124 18z m362 -133
c0 -9 -9 -12 -25 -9 -17 3 -20 7 -10 13 19 13 35 11 35 -4z m-637 -12 c0 -4
-8 -20 -17 -38 -14 -27 -18 -29 -21 -13 -2 11 3 23 14 29 17 10 17 11 -1 18
-19 7 -18 8 3 8 12 1 22 -1 22 -4z m756 -16 c3 -5 -13 -9 -35 -9 -27 0 -41 4
-41 13 0 15 66 11 76 -4z m633 7 c22 -26 -16 -265 -47 -300 -23 -26 -75 -46
-114 -45 l-33 1 33 8 c51 12 50 20 -3 20 l-48 0 5 68 c6 85 34 148 94 212 49
52 89 65 113 36z m-870 -10 c-2 -2 -17 -6 -34 -9 l-30 -6 30 13 c26 12 47 13
34 2z m-1968 -139 c11 -56 32 -160 45 -231 14 -71 27 -133 30 -137 3 -5 1 -9
-3 -9 -5 0 -23 24 -40 53 -67 112 -110 330 -83 427 11 41 13 43 21 22 5 -12
18 -69 30 -125z m1666 96 c-3 -10 -5 -4 -5 12 0 17 2 24 5 18 2 -7 2 -21 0
-30z m626 30 c-7 -2 -21 -2 -30 0 -10 3 -4 5 12 5 17 0 24 -2 18 -5z m-398
-13 c-3 -5 -14 -10 -23 -10 -15 0 -15 2 -2 10 20 13 33 13 25 0z m-2205 -9 c0
-8 -110 -34 -117 -27 -2 2 22 10 54 18 32 9 59 16 61 17 1 0 2 -3 2 -8z m2765
-12 c11 -4 -30 -7 -95 -6 -63 0 -87 2 -52 4 34 2 62 8 62 13 0 10 49 3 85 -11z
m-377 4 c-15 -2 -42 -2 -60 0 -18 2 -6 4 27 4 33 0 48 -2 33 -4z m-2548 -33
c0 -5 -15 -10 -34 -10 -18 0 -49 -2 -67 -5 -20 -2 -14 1 16 9 62 17 85 19 85
6z m-243 -46 c-3 -3 -12 -4 -19 -1 -8 3 -5 6 6 6 11 1 17 -2 13 -5z m-37 -14
c0 -5 -17 -10 -37 -9 -31 0 -34 2 -18 9 28 12 55 12 55 0z m590 -6 c0 -2 -7
-4 -15 -4 -8 0 -15 4 -15 10 0 5 7 7 15 4 8 -4 15 -8 15 -10z m3017 -16 c-3
-7 -5 -2 -5 12 0 14 2 19 5 13 2 -7 2 -19 0 -25z m-1302 2 c-3 -5 -12 -10 -18
-10 -7 0 -6 4 3 10 19 12 23 12 15 0z m6 -117 c-12 -20 -14 -14 -5 12 4 9 9
14 11 11 3 -2 0 -13 -6 -23z m209 -8 c0 -3 -10 -10 -22 -15 -16 -6 -2 -7 42
-3 36 2 83 0 105 -5 34 -8 23 -10 -72 -11 -127 -1 -144 10 -55 38 1 1 2 -1 2
-4z m1067 -27 c-3 -8 -6 -5 -6 6 -1 11 2 17 5 13 3 -3 4 -12 1 -19z m-53 -37
c4 -5 10 -36 14 -68 l8 -60 -50 19 c-114 42 -126 49 -126 79 0 27 2 28 58 32
31 2 65 4 74 5 9 1 19 -2 22 -7z m-1359 -30 c-3 -5 2 -12 10 -14 12 -4 12 -5
-1 -3 -19 1 -32 26 -14 26 6 0 9 -4 5 -9z m1227 -59 c112 -39 252 -111 218
-112 -14 -1 -34 -5 -45 -10 -14 -6 -3 -9 38 -8 53 1 61 -2 93 -33 55 -52 59
-71 28 -140 -23 -51 -26 -68 -20 -117 3 -31 8 -66 12 -77 3 -14 -7 -39 -32
-75 -45 -68 -46 -68 -51 -52 -3 6 -8 10 -13 7 -4 -3 -6 3 -3 13 6 25 -76 98
-126 112 -60 17 -67 13 -36 -20 33 -34 27 -36 -37 -14 -25 8 -106 25 -179 38
l-134 22 3 54 c2 30 11 68 19 83 19 38 11 45 -12 10 -10 -15 -20 -50 -22 -78
-6 -68 -13 -86 -23 -60 -5 11 -9 34 -9 50 -1 33 33 115 52 127 28 18 86 10
382 -56 69 -16 115 -35 115 -49 0 -5 -6 -7 -12 -4 -7 2 -22 1 -33 -4 -15 -5
-8 -8 25 -8 25 -1 57 -8 73 -15 15 -8 27 -10 27 -5 0 5 -12 15 -26 21 -21 10
-25 17 -20 39 3 17 0 32 -9 39 -8 7 -15 17 -15 23 0 6 13 -2 30 -18 16 -16 33
-25 37 -21 15 15 -106 93 -162 106 -40 9 -44 1 -15 -25 34 -31 14 -28 -31 4
-49 36 -153 71 -211 71 l-39 0 7 58 c4 31 10 67 15 80 5 13 5 22 -1 22 -13 0
-30 -67 -30 -122 0 -42 -3 -48 -20 -48 -23 0 -96 -34 -123 -58 -24 -22 -32 -8
-30 53 2 70 22 106 86 156 98 78 133 84 259 41z m-322 -325 c-14 -24 -22 -55
-23 -91 -1 -44 -5 -56 -19 -59 -16 -4 -18 2 -18 44 0 54 20 103 54 130 29 24
30 18 6 -24z m540 3 c6 -11 8 -20 6 -20 -3 0 -10 9 -16 20 -6 11 -8 20 -6 20
3 0 10 -9 16 -20z m121 -100 c-9 -24 -10 -23 -10 10 -1 19 3 46 7 60 6 23 7
22 10 -10 2 -20 -1 -47 -7 -60z m-1601 -72 c10 -67 26 -189 35 -269 18 -146
18 -147 -4 -218 l-22 -71 -37 5 c-20 2 -58 7 -83 10 -40 5 -49 10 -59 34 -13
33 -17 145 -6 179 4 12 3 22 -2 22 -9 0 -56 -98 -87 -182 -19 -51 -15 -49
-157 -74 -36 -6 -52 6 -28 21 33 20 320 499 320 533 0 23 97 148 108 138 2 -2
12 -60 22 -128z m-350 17 c-7 -8 -18 -15 -24 -15 -6 0 -2 7 8 15 25 19 32 19
16 0z m-637 -64 c12 -13 16 -21 10 -17 -7 4 -13 2 -13 -4 0 -6 8 -9 18 -6 12
4 42 -19 102 -76 93 -88 169 -138 213 -138 54 0 143 58 316 206 l43 38 -7 -35
c-14 -64 -66 -193 -143 -350 l-76 -157 -137 -46 c-150 -50 -186 -56 -196 -28
-3 9 -22 39 -40 66 -19 27 -44 69 -55 95 -25 59 -49 217 -42 279 5 43 4 45
-10 29 -27 -35 -33 -277 -10 -406 l7 -34 -44 7 c-53 8 -64 18 -51 42 14 29 23
74 14 74 -4 0 -14 -19 -22 -42 l-15 -43 -90 3 c-56 2 -118 -3 -164 -12 -41 -9
-76 -14 -79 -11 -12 11 96 170 143 210 62 52 175 128 181 122 3 -3 -4 -40 -15
-82 -11 -43 -15 -73 -10 -68 24 24 89 321 89 406 l0 38 31 -18 c16 -10 40 -29
52 -42z m817 -11 c-6 -11 -12 -20 -14 -20 -2 0 -2 9 1 20 3 11 9 20 15 20 5 0
4 -9 -2 -20z m1610 -15 c19 -19 32 -35 29 -35 -3 0 -20 16 -39 35 -19 19 -32
35 -29 35 3 0 20 -16 39 -35z m-347 8 c-7 -2 -19 -2 -25 0 -7 3 -2 5 12 5 14
0 19 -2 13 -5z m356 -68 c-3 -3 -21 14 -39 38 l-33 42 39 -37 c21 -21 36 -40
33 -43z m-329 36 c63 -11 139 -25 168 -30 29 -6 56 -10 60 -9 9 2 111 -12 135
-18 12 -4 17 -16 17 -46 0 -45 -8 -54 -82 -93 -51 -27 -82 -32 -110 -20 -12 4
-18 3 -18 -5 0 -23 -201 15 -298 56 l-44 19 4 67 c4 80 -11 76 -19 -5 -3 -31
-9 -54 -13 -52 -16 10 -18 61 -4 94 8 19 13 36 11 38 -8 8 -27 -25 -36 -63
l-9 -39 -1 33 c-1 20 8 46 20 63 25 36 55 37 219 10z m100 10 c0 -5 -9 -7 -20
-4 -11 3 -20 7 -20 9 0 2 9 4 20 4 11 0 20 -4 20 -9z m-1460 -91 c-6 -11 -13
-20 -16 -20 -2 0 0 9 6 20 6 11 13 20 16 20 2 0 0 -9 -6 -20z m-397 -17 c-13
-2 -33 -2 -45 0 -13 2 -3 4 22 4 25 0 35 -2 23 -4z m347 -73 c-18 -27 -34 -50
-37 -50 -3 0 2 11 11 25 9 13 16 29 16 35 0 11 33 48 39 44 2 -2 -11 -26 -29
-54z m417 -2 c-3 -7 -5 -2 -5 12 0 14 2 19 5 13 2 -7 2 -19 0 -25z m182 -42
c25 -26 29 -36 19 -41 -7 -5 -10 -4 -5 0 4 5 -7 24 -25 42 -17 18 -30 33 -27
33 3 0 20 -15 38 -34z m628 20 c0 -8 -6 -12 -15 -9 -11 5 -11 7 0 14 7 5 13 9
14 9 0 0 1 -6 1 -14z m120 -72 c93 -24 149 -30 306 -35 54 -1 70 -5 78 -20 7
-15 6 -17 -5 -13 -12 4 -16 -5 -18 -43 -3 -46 -5 -49 -48 -70 -47 -24 -63 -26
-145 -19 -69 6 -274 53 -291 67 -17 14 -18 64 -3 108 6 18 9 35 5 38 -9 9 -28
-47 -34 -102 l-6 -50 -7 40 c-9 52 20 125 50 125 12 0 65 -12 118 -26z m-2573
-44 c-15 -22 -30 -37 -35 -34 -5 2 -14 -4 -21 -16 -7 -11 -17 -20 -23 -20 -5
0 15 25 45 55 30 30 56 55 57 55 2 0 -9 -18 -23 -40z m-116 6 c-10 -7 -14 -17
-10 -21 4 -5 1 -5 -5 -1 -7 4 -13 3 -13 -2 0 -5 -9 -12 -20 -15 -32 -8 -23 7
18 31 41 24 56 28 30 8z m629 -28 c-3 -7 -5 -2 -5 12 0 14 2 19 5 13 2 -7 2
-19 0 -25z m794 5 c-12 -20 -14 -14 -5 12 4 9 9 14 11 11 3 -2 0 -13 -6 -23z
m509 24 c0 -2 -10 -12 -22 -23 l-23 -19 19 23 c18 21 26 27 26 19z m521 -44
c31 -4 38 -10 43 -36 7 -35 -2 -52 -11 -19 -3 12 -12 22 -19 22 -8 0 -14 4
-14 10 0 5 -18 14 -40 20 -22 6 -40 13 -40 17 0 3 10 2 23 -1 12 -4 38 -10 58
-13z m-190 -20 c-12 -20 -14 -14 -5 12 4 9 9 14 11 11 3 -2 0 -13 -6 -23z
m-2492 -7 c-7 -6 -252 -15 -245 -9 6 6 237 21 245 16 2 -2 2 -5 0 -7z m114 -3
c-7 -2 -19 -2 -25 0 -7 3 -2 5 12 5 14 0 19 -2 13 -5z m1308 -20 c-14 -24 -55
-72 -45 -53 10 20 47 70 51 70 2 0 -1 -8 -6 -17z m209 -3 c0 -11 -4 -20 -9
-20 -5 0 -7 9 -4 20 3 11 7 20 9 20 2 0 4 -9 4 -20z m-2047 -22 c-13 -6 -23
-17 -23 -25 0 -7 -9 -13 -20 -13 -17 0 -20 -7 -20 -40 0 -22 -4 -40 -9 -40
-13 0 -31 -90 -31 -150 0 -28 -4 -50 -10 -50 -16 0 -11 56 14 167 25 112 44
149 78 156 39 7 44 6 21 -5z m608 -11 c-10 -9 -11 -8 -5 6 3 10 9 15 12 12 3
-3 0 -11 -7 -18z m80 -14 c-12 -20 -14 -14 -5 12 4 9 9 14 11 11 3 -2 0 -13
-6 -23z m1409 11 c0 -2 -7 -4 -15 -4 -8 0 -15 4 -15 10 0 5 7 7 15 4 8 -4 15
-8 15 -10z m812 -11 c-3 -16 -7 -22 -10 -15 -4 13 4 42 11 42 2 0 2 -12 -1
-27z m-172 -3 c0 -5 -5 -10 -11 -10 -5 0 -7 5 -4 10 3 6 8 10 11 10 2 0 4 -4
4 -10z m468 -28 c2 -15 -2 -22 -12 -22 -11 0 -16 9 -16 26 0 31 23 28 28 -4z
m-1911 -14 c-3 -7 -5 -2 -5 12 0 14 2 19 5 13 2 -7 2 -19 0 -25z m987 11 c32
-6 67 -11 77 -12 30 -2 23 -12 -35 -51 -114 -75 -249 -124 -537 -194 -145 -36
-396 -78 -405 -69 -4 3 10 29 30 57 38 52 41 60 28 60 -5 0 -26 -27 -47 -60
-21 -33 -40 -58 -43 -56 -2 3 17 36 42 75 25 39 41 71 36 71 -6 0 -32 -33 -58
-74 l-47 -75 -100 -3 c-115 -4 -239 9 -275 27 -67 35 -140 147 -140 214 0 27
4 30 53 42 111 29 308 13 438 -36 20 -7 63 -18 95 -24 66 -12 90 -7 313 63
172 54 246 66 391 61 69 -3 152 -10 184 -16z m1010 -51 c3 -17 6 -49 6 -71 0
-24 7 -49 18 -61 17 -20 17 -20 -8 -5 -39 25 -70 87 -70 141 0 47 1 47 24 37
15 -7 26 -23 30 -41z m-567 0 c-3 -7 -5 -2 -5 12 0 14 2 19 5 13 2 -7 2 -19 0
-25z m173 12 c0 -11 -4 -20 -10 -20 -5 0 -10 9 -10 20 0 11 5 20 10 20 6 0 10
-9 10 -20z m760 17 c0 -2 -10 -12 -22 -23 l-23 -19 19 23 c18 21 26 27 26 19z
m-464 -54 c-2 -10 -7 -33 -11 -50 -4 -18 -10 -35 -14 -37 -3 -2 -2 20 3 50 6
30 14 54 19 54 5 0 6 -8 3 -17z m-326 -63 c-5 -22 -8 -27 -9 -13 -1 21 9 56
14 51 2 -2 0 -19 -5 -38z m-2263 -62 c-3 -8 -6 -5 -6 6 -1 11 2 17 5 13 3 -3
4 -12 1 -19z m1856 2 c-5 -19 -23 -29 -23 -12 0 7 20 32 26 32 1 0 0 -9 -3
-20z m393 -58 c-13 -12 -17 8 -9 44 l8 39 3 -39 c2 -21 1 -41 -2 -44z m304 75
c0 -2 -10 -12 -21 -23 -22 -19 -22 -19 -8 4 12 19 29 30 29 19z m-369 -75
c-14 -5 -15 -42 -1 -42 6 0 10 -9 10 -20 0 -11 -4 -20 -10 -20 -5 0 -10 9 -10
20 0 11 -4 20 -10 20 -10 0 -9 4 11 55 10 26 13 27 17 10 2 -10 -1 -21 -7 -23z
m-368 -22 c-3 -11 -12 -20 -19 -20 -12 0 -12 4 -2 20 7 11 16 20 19 20 4 0 5
-9 2 -20z m408 -51 c-9 -22 -10 -22 -10 -3 -1 11 2 24 6 27 12 12 14 0 4 -24z
m-2260 -50 c-5 -30 -9 -42 -10 -28 -1 30 10 92 15 86 3 -2 0 -28 -5 -58z
m1790 -8 c-26 -26 -26 -22 -3 25 14 31 18 34 20 16 2 -11 -6 -30 -17 -41z
m-2485 -154 c0 -149 0 -155 -7 -67 -7 75 -3 230 5 230 0 0 1 -73 2 -163z
m2833 144 c-7 -10 -21 -24 -33 -31 -15 -9 -12 -3 8 19 34 35 41 39 25 12z
m-2578 -14 c-10 -9 -11 -8 -5 6 3 10 9 15 12 12 3 -3 0 -11 -7 -18z m446 -64
c-3 -10 -5 -4 -5 12 0 17 2 24 5 18 2 -7 2 -21 0 -30z m1724 -10 c-12 -20 -14
-14 -5 12 4 9 9 14 11 11 3 -2 0 -13 -6 -23z m-2114 -35 c-3 -8 -6 -5 -6 6 -1
11 2 17 5 13 3 -3 4 -12 1 -19z m413 -10 c0 -5 -4 -8 -10 -8 -5 0 -10 10 -10
23 0 18 2 19 10 7 5 -8 10 -18 10 -22z m1664 -32 c-3 -9 -10 -16 -15 -16 -6 0
-5 9 1 21 13 24 24 20 14 -5z m-2081 -43 c-3 -29 -9 -53 -14 -53 -12 0 -11 12
2 66 15 57 18 53 12 -13z m440 7 c3 -11 3 -20 1 -20 -2 0 -8 9 -14 20 -6 11
-7 20 -2 20 6 0 12 -9 15 -20z m1958 -7 c-12 -20 -14 -14 -5 12 4 9 9 14 11
11 3 -2 0 -13 -6 -23z m40 0 c-8 -15 -10 -15 -11 -2 0 17 10 32 18 25 2 -3 -1
-13 -7 -23z m-398 -33 c-5 -19 -23 -29 -23 -12 0 7 20 32 26 32 1 0 0 -9 -3
-20z m-1543 -92 c1 -19 -18 -6 -24 16 -3 13 -8 32 -12 43 -3 10 4 2 15 -17 11
-19 20 -38 21 -42z m2177 50 c-3 -8 -6 -5 -6 6 -1 11 2 17 5 13 3 -3 4 -12 1
-19z m-2706 -78 c-5 -25 -9 -35 -10 -24 -1 28 11 92 16 79 1 -6 -1 -30 -6 -55z
m2006 6 c-36 -38 -40 -32 -9 15 17 26 28 36 30 26 2 -8 -8 -27 -21 -41z
m-1730 -108 c-2 -24 -4 -5 -4 42 0 47 2 66 4 43 2 -24 2 -62 0 -85z m37 87 c5
-22 4 -26 -4 -15 -5 8 -10 24 -10 34 0 26 6 18 14 -19z m2112 -2 c-11 -11 -19
6 -11 24 8 17 8 17 12 0 3 -10 2 -21 -1 -24z m-2646 -12 c0 -9 -20 -37 -20
-29 0 3 -2 13 -5 21 -4 8 0 14 10 14 8 0 15 -3 15 -6z m780 -11 c6 -11 7 -20
2 -20 -6 0 -12 9 -15 20 -3 11 -3 20 -1 20 2 0 8 -9 14 -20z m1390 -35 c0 -18
-5 -25 -20 -25 -24 0 -25 8 -3 32 21 23 23 23 23 -7z m443 -28 c-3 -20 -10
-37 -14 -37 -12 0 -11 10 2 49 14 41 20 35 12 -12z m1561 17 c3 -8 2 -12 -4
-9 -6 3 -10 10 -10 16 0 14 7 11 14 -7z m-3964 -54 c0 -30 -4 -40 -16 -40 -11
0 -14 5 -10 16 3 9 6 27 6 40 0 13 5 24 10 24 6 0 10 -18 10 -40z m614 1 c-6
-6 -24 19 -24 34 1 6 7 1 15 -9 8 -11 12 -22 9 -25z m2073 7 c-3 -7 -5 -2 -5
12 0 14 2 19 5 13 2 -7 2 -19 0 -25z m-414 7 c-3 -9 -8 -14 -10 -11 -3 3 -2 9
2 15 9 16 15 13 8 -4z m-393 -35 c0 -13 -7 -20 -20 -20 -13 0 -20 -7 -20 -20
0 -13 -7 -20 -20 -20 -13 0 -20 -7 -20 -20 0 -13 -7 -20 -20 -20 -13 0 -20 -7
-20 -20 0 -13 -7 -20 -20 -20 -11 0 -20 2 -20 5 0 6 149 155 155 155 3 0 5 -9
5 -20z m-1490 -55 c0 -5 -5 -3 -10 5 -5 8 -10 20 -10 25 0 6 5 3 10 -5 5 -8
10 -19 10 -25z m270 4 c0 -18 -18 -9 -23 12 -4 16 -3 18 9 8 8 -6 14 -15 14
-20z m1701 4 c-8 -15 -10 -15 -11 -2 0 17 10 32 18 25 2 -3 -1 -13 -7 -23z
m316 5 c-3 -8 -6 -5 -6 6 -1 11 2 17 5 13 3 -3 4 -12 1 -19z m370 -10 c-3 -8
-6 -5 -6 6 -1 11 2 17 5 13 3 -3 4 -12 1 -19z m-380 -80 c-3 -7 -5 -2 -5 12 0
14 2 19 5 13 2 -7 2 -19 0 -25z m370 -40 c-3 -8 -6 -5 -6 6 -1 11 2 17 5 13 3
-3 4 -12 1 -19z"/>
<path d="M2934 3526 c-14 -32 -24 -60 -20 -63 3 -3 17 21 31 52 14 32 23 60
20 63 -2 3 -16 -21 -31 -52z"/>
<path d="M2961 3521 c-12 -29 -20 -55 -18 -58 7 -6 48 88 44 100 -2 6 -13 -13
-26 -42z"/>
<path d="M2975 3480 c-34 -68 -27 -75 9 -9 16 28 26 53 23 56 -3 3 -18 -18
-32 -47z"/>
<path d="M2655 3331 c-45 -28 -71 -60 -100 -124 -33 -71 -49 -174 -38 -247 7
-53 7 -51 14 50 3 58 11 124 18 147 18 63 70 135 119 162 40 21 48 22 84 12
30 -9 46 -23 69 -59 16 -26 32 -58 35 -72 10 -46 17 -57 21 -37 8 31 -55 146
-90 168 -40 24 -93 24 -132 0z"/>
<path d="M1982 3123 c-37 -15 -78 -159 -64 -223 7 -30 9 -23 15 48 17 222 161
234 175 16 3 -41 9 -77 15 -81 13 -8 2 132 -13 173 -24 62 -75 89 -128 67z"/>
<path d="M2716 3111 c-40 -44 -28 -135 20 -147 55 -14 97 84 64 147 -14 25
-61 25 -84 0z"/>
<path d="M2735 2833 c-59 -7 -230 -45 -248 -55 -32 -17 -13 -18 38 -3 58 18
79 19 69 4 -4 -7 0 -9 12 -6 11 3 35 9 54 12 19 3 44 8 55 10 11 2 57 4 103 4
54 1 82 5 82 12 0 8 -28 10 -97 6 -81 -4 -88 -4 -44 4 89 15 71 24 -24 12z
m-42 -30 c-7 -2 -21 -2 -30 0 -10 3 -4 5 12 5 17 0 24 -2 18 -5z m-56 -9 c-3
-3 -12 -4 -19 -1 -8 3 -5 6 6 6 11 1 17 -2 13 -5z"/>
<path d="M2190 2709 c-47 -64 -45 -85 9 -127 36 -27 51 -33 75 -28 42 9 79 45
65 63 -15 17 -46 17 -98 -2 -78 -27 -97 5 -45 76 20 27 34 53 32 58 -1 4 -19
-13 -38 -40z"/>
<path d="M1925 2729 l-30 -20 45 8 c25 4 73 8 107 8 54 0 59 2 40 12 -37 20
-128 16 -162 -8z"/>
<path d="M2610 2661 c0 -5 9 -7 19 -4 22 6 46 -29 37 -53 -3 -8 -1 -14 4 -14
14 0 12 54 -2 68 -14 14 -58 16 -58 3z"/>
<path d="M2502 2599 c-65 -48 -174 -82 -254 -81 -38 1 -68 -2 -68 -5 0 -4 10
-42 21 -85 16 -57 30 -89 54 -114 32 -33 34 -34 111 -34 75 0 148 15 193 40
40 21 81 134 81 222 0 38 -5 50 -26 67 -37 29 -63 26 -112 -10z m88 6 c35 -18
44 -45 33 -99 -8 -35 -13 -40 -53 -52 -25 -8 -78 -17 -117 -20 -40 -4 -73 -11
-73 -15 0 -11 108 0 175 17 27 7 52 11 54 8 9 -9 -33 -96 -53 -109 -27 -18
-140 -45 -189 -45 -59 0 -104 24 -124 65 -15 31 -15 37 -3 45 13 8 13 10 -1
10 -10 0 -20 15 -27 39 -17 55 -16 56 33 53 62 -5 199 38 261 82 27 19 50 35
52 35 2 1 16 -6 32 -14z"/>
<path d="M2383 2211 l-42 -6 34 -23 35 -22 20 20 c11 11 27 20 36 20 8 0 12 5
9 10 -7 11 -24 11 -92 1z"/>
<path d="M4181 2661 c-6 -11 -13 -48 -16 -83 -4 -44 -2 -57 4 -43 5 11 10 34
10 52 1 17 6 44 11 59 13 33 6 44 -9 15z"/>
<path d="M4575 2140 c10 -11 20 -20 23 -20 3 0 -3 9 -13 20 -10 11 -20 20 -23
20 -3 0 3 -9 13 -20z"/>
<path d="M2260 1983 c0 -5 16 -28 35 -52 30 -38 35 -52 36 -100 1 -54 2 -65 9
-86 2 -5 6 24 9 65 l6 75 -40 52 c-38 48 -55 63 -55 46z"/>
<path d="M4493 2006 c-74 -25 -93 -41 -38 -31 52 10 115 35 115 46 0 11 -1 11
-77 -15z"/>
<path d="M4396 1759 c-22 -5 -42 -12 -45 -15 -9 -9 134 8 144 17 12 11 -47 10
-99 -2z"/>
<path d="M4460 1730 c-13 -8 -12 -10 3 -10 9 0 17 5 17 10 0 12 -1 12 -20 0z"/>
<path d="M570 441 c0 -6 4 -13 10 -16 6 -3 7 1 4 9 -7 18 -14 21 -14 7z"/>
<path d="M3042 358 c-18 -18 -14 -32 5 -17 9 8 18 13 20 12 1 -2 3 0 4 4 1 13
-16 14 -29 1z"/>
</g>
</svg>
